# xmcd
#
# Track frame offsets: 
#        182
#        30090
#        62387
#        87837
#        105325
#        131867
#        158012
#        178040
#        207675
#        229637
#        255250
#        272117
#        290190
#        322227
#
# Disc length: 4676 seconds
#
# Revision: 3
# Processed by: cddbd v1.5.2PL0 Copyright (c) Steve Scherf et al.
# Submitted via: ExactAudioCopy v0.95a5
#
DISCID=c112420e
DTITLE=Junior - The Best Of...
DYEAR=1995
DGENRE=Pop/Funk
TTITLE0=Mama Used To Say [U.S. 12'' Version] (1981)
TTITLE1=Too Late [ U.S. 12'' Version] (1982)
TTITLE2=Somebody [12'' Version] (1984)
TTITLE3=Oh Louise [7'' Single Mix] (1986)
TTITLE4=Baby I Want You Back (1983)
TTITLE5=Let Me Know (1982)
TTITLE6=I Can't Help It (1982)
TTITLE7=Unison [12'' Version] (1983)
TTITLE8=Communication Breakdown (1983)
TTITLE9=Do You Really Want My Love (1985)
TTITLE10=Yes (If You Want Me) (1987)
TTITLE11=Say That You Care [7" Single Mix] (1988)
TTITLE12=Not Tonight (1985)
TTITLE13=Darling You (Don't You Know) (1982)
EXTD=
EXTT0=
EXTT1=
EXTT2=
EXTT3=
EXTT4=
EXTT5=
EXTT6=
EXTT7=
EXTT8=
EXTT9=
EXTT10=
EXTT11=
EXTT12=
EXTT13=
PLAYORDER=
